<svg width="263" height="256" viewBox="0 0 263 256" fill="none" xmlns="http://www.w3.org/2000/svg">
<path d="M121.575 0.5H140.662L144.301 18.4348C149.612 19.2848 154.755 20.6399 159.68 22.4497L172.727 9.32917L189.142 19.6938L183.768 36.2653C186.995 38.9187 190.019 41.8108 192.815 44.9149C192.402 44.8324 191.949 44.758 191.475 44.6898C189.798 44.4483 187.52 44.237 185.029 44.062C184.066 43.9944 183.064 43.9317 182.044 43.8746C168.533 31.7027 150.685 24.3004 131.118 24.3004C111.551 24.3004 93.7033 31.7027 80.1927 43.8746C79.1727 43.9317 78.1707 43.9944 77.2076 44.062C74.7171 44.237 72.439 44.4483 70.7616 44.6898C70.2876 44.758 69.8341 44.8324 69.4219 44.9149C72.3791 41.6317 75.5919 38.5855 79.0287 35.8082L73.0946 19.31L89.891 9.32917L102.837 22.3473C107.793 20.5466 112.967 19.2057 118.31 18.3757L121.575 0.5Z" fill="#132634"/>
<path d="M51.7653 75.793C50.3609 80.2546 49.3183 84.878 48.6721 89.6284L30.3402 93.0144L30.3402 112.592L49.0452 116.047V114.991C50.0335 120.929 51.6438 126.656 53.8063 132.101L39.6927 144.183L49.4269 161.138L67.2699 154.751C70.7342 158.914 74.5935 162.733 78.79 166.15L73.1581 182.061L90.0183 191.85L100.851 179.054C106.471 181.261 112.389 182.872 118.526 183.809L121.575 200.5H141.043L144.103 183.748C150.022 182.816 155.735 181.256 161.17 179.138L173.222 193.373L190.082 183.585L183.806 165.855C188.094 162.324 192.025 158.371 195.536 154.06L213.167 160.37L222.901 143.415L208.745 131.297C211.048 125.319 212.687 119.01 213.573 112.459V116.047L232.278 112.592V93.0144L213.573 89.5595V89.6922C212.928 84.9194 211.882 80.2746 210.471 75.793C210.122 78.7628 207.899 81.1555 205.024 81.7433C206.618 87.9197 207.465 94.3982 207.465 101.076C207.465 143.478 173.284 177.851 131.118 177.851C88.953 177.851 54.7712 143.478 54.7712 101.076C54.7712 94.3982 55.619 87.9197 57.2121 81.7433C54.3374 81.1555 52.1149 78.7628 51.7653 75.793Z" fill="#132634"/>
<path d="M139.85 138.135H134.861L132.042 140.415H139.85V142.478H129.981C129.168 143.076 128.789 143.781 128.789 144.65C128.789 146.17 129.927 146.985 132.096 146.985C133.831 146.985 135.295 146.17 136.488 144.433L138.928 146.062C137.301 148.614 134.536 149.863 131.879 149.863C128.192 149.863 125.59 148.071 125.59 145.247C125.59 144.27 125.915 143.293 126.62 142.478H123.475V140.415H128.246L131.12 138.135H123.475V136.072H133.289C134.157 135.257 134.482 134.551 134.482 133.791C134.482 132.434 133.235 131.511 131.5 131.511C129.819 131.511 128.463 132.434 127.433 134.063L124.939 132.379C126.457 129.99 128.843 128.687 131.554 128.687C135.295 128.687 137.681 130.588 137.681 133.357C137.681 134.334 137.356 135.311 136.759 136.072H139.85V138.135Z" fill="#132634"/>
<path fill-rule="evenodd" clip-rule="evenodd" d="M67.6504 49.9826C67.4093 51.2722 66.8627 52.4557 66.0879 53.4528H69.0451C71.7956 53.4528 74.1829 55.0098 75.3761 57.2916H110.231C111.101 55.475 112.954 54.2206 115.101 54.2206H148.663C150.809 54.2206 152.663 55.475 153.533 57.2916H186.86C188.054 55.0098 190.441 53.4528 193.191 53.4528H196.149C195.374 52.4557 194.827 51.2722 194.586 49.9826C194.259 50.1523 193.919 50.2611 193.661 50.3338C193.068 50.5009 192.304 50.6383 191.48 50.757C189.801 50.9987 187.522 51.2101 185.031 51.385C180.038 51.7357 174.003 51.9529 169.798 51.9529C165.586 51.9529 161.731 51.7353 158.89 51.372C157.486 51.1925 156.239 50.9664 155.297 50.6818C154.843 50.5446 154.322 50.3537 153.866 50.0691C153.555 49.875 152.472 49.1435 152.472 47.7169C152.472 46.2903 153.555 45.5588 153.866 45.3647C154.322 45.0801 154.843 44.8892 155.297 44.752C156.239 44.4673 157.486 44.2412 158.89 44.0617C161.731 43.6985 165.586 43.4809 169.798 43.4809C174.003 43.4809 180.038 43.698 185.031 44.0488C187.522 44.2237 189.801 44.4351 191.48 44.6767C192.304 44.7954 193.068 44.9329 193.661 45.1C193.94 45.1785 194.314 45.2993 194.665 45.4933C194.742 45.5359 194.84 45.5943 194.95 45.6717C196.086 42.6004 199.03 40.401 202.503 40.401C205.941 40.401 208.86 42.5565 210.021 45.5796C210.073 45.5365 210.121 45.4993 210.164 45.4679C210.596 45.1474 211.087 44.9358 211.497 44.7888C212.345 44.4847 213.443 44.2512 214.643 44.0692C217.08 43.6997 220.366 43.4809 223.94 43.4809C227.505 43.4809 232.613 43.699 236.839 44.0511C238.946 44.2265 240.889 44.4398 242.332 44.6861C243.037 44.8065 243.719 44.9504 244.264 45.1325C244.52 45.2182 244.886 45.3567 245.231 45.5835C245.441 45.7215 246.425 46.3912 246.425 47.7169C246.425 49.0425 245.441 49.7123 245.231 49.8503C244.886 50.0771 244.52 50.2156 244.264 50.3013C243.719 50.4834 243.037 50.6273 242.332 50.7477C240.889 50.994 238.946 51.2072 236.839 51.3827C232.613 51.7348 227.505 51.9529 223.94 51.9529C220.366 51.9529 217.08 51.7341 214.643 51.3646C213.443 51.1825 212.345 50.949 211.497 50.645C211.158 50.5234 210.763 50.3575 210.392 50.1222C210.138 51.3576 209.604 52.4918 208.857 53.4528H209.524C213.468 53.4528 216.665 56.6546 216.665 60.6042C216.665 63.0394 214.694 65.0136 212.262 65.0136H210.558V74.9544C210.558 78.7927 207.45 81.9042 203.617 81.9042H202.152C198.592 81.9042 195.657 79.2199 195.258 75.7622H189.18V77.2977H169.062V77.3635C169.078 77.473 169.096 77.6055 169.116 77.7576C169.17 78.1851 169.236 78.7809 169.28 79.4603C169.36 80.6908 169.408 82.677 168.919 84.4221C167.997 87.7144 166.51 89.5469 164.365 91.5467C162.823 92.9841 161.277 94.3267 158.897 95.1108L176.12 127.304C176.435 127.893 176.638 128.589 176.539 129.343C176.439 130.107 176.062 130.68 175.678 131.075C175.313 131.449 174.899 131.706 174.589 131.879C174.348 132.013 174.08 132.142 173.887 132.236C173.838 132.259 173.794 132.281 173.756 132.299C173.73 132.312 173.7 132.327 173.666 132.344C173.343 132.506 172.696 132.831 172.007 132.921C170.995 133.053 170.031 132.713 169.253 131.907C168.628 131.26 168.115 130.254 167.726 129.465C167.584 129.179 167.448 128.896 167.313 128.615C167.015 127.996 166.722 127.389 166.395 126.786L149.284 95.2321L148.372 95.135L148.433 94.9045L147.953 95.7409V104.142C147.953 106.701 145.882 108.776 143.326 108.776H138.791V117.778C147.266 120.917 153.297 129.107 153.297 138.696C153.297 150.989 143.383 160.983 131.118 160.983C118.854 160.983 108.939 150.989 108.939 138.696C108.939 129.107 114.971 120.917 123.445 117.778V108.776H118.91C116.355 108.776 114.284 106.701 114.284 104.142V96.5499L113.787 95.6097L111.709 95.8345L94.5286 126.586C94.1993 127.176 93.9055 127.768 93.6049 128.374L93.6045 128.375C93.4681 128.65 93.3301 128.928 93.1869 129.21C92.7937 129.983 92.2729 130.975 91.6387 131.613C90.8516 132.404 89.8929 132.724 88.9013 132.598C88.2174 132.511 87.5736 132.198 87.2457 132.038L87.2108 132.021C87.1904 132.011 87.1714 132.002 87.154 131.994C87.1157 131.976 87.0709 131.955 87.0214 131.931C86.8262 131.84 86.5567 131.713 86.3146 131.583C86.0045 131.415 85.5877 131.163 85.219 130.797C84.8313 130.411 84.4397 129.839 84.3355 129.065C84.2324 128.3 84.4454 127.599 84.7673 127.014L102.318 95.1686C100.516 94.3595 99.2182 93.2007 97.9301 91.9807C95.8023 89.9656 94.3361 88.1261 93.4271 84.8287C92.9468 83.0861 92.993 81.0995 93.072 79.8631C93.1155 79.1817 93.1804 78.584 93.2344 78.155C93.254 77.9998 93.2724 77.8648 93.2881 77.7539V77.2977H76.9196C75.5535 77.2977 74.3257 76.7049 73.4788 75.7622H66.9788C66.5791 79.2199 63.645 81.9042 60.0848 81.9042H58.6193C54.7862 81.9042 51.6789 78.7927 51.6789 74.9544V65.0136H49.9746C47.5426 65.0136 45.5712 63.0394 45.5712 60.6042C45.5712 56.6546 48.7686 53.4528 52.7129 53.4528H53.3797C52.4951 52.3143 51.9079 50.933 51.7333 49.4281C51.4075 49.6217 51.0715 49.7638 50.7786 49.8713C49.942 50.1784 48.8627 50.4131 47.6874 50.5956C45.3006 50.9662 42.0858 51.1851 38.5912 51.1851C35.105 51.1851 30.1134 50.9669 25.9829 50.6146C23.9244 50.439 22.0225 50.2255 20.6088 49.9783C19.9184 49.8577 19.2465 49.7127 18.7071 49.5283C18.453 49.4414 18.089 49.3001 17.7448 49.0687C17.5224 48.9191 16.5746 48.2491 16.5746 46.9491C16.5746 45.6492 17.5224 44.9791 17.7448 44.8296C18.089 44.5981 18.453 44.4569 18.7071 44.37C19.2465 44.1856 19.9184 44.0406 20.6088 43.9199C22.0225 43.6728 23.9244 43.4593 25.9829 43.2837C30.1134 42.9314 35.105 42.7131 38.5912 42.7131C42.0858 42.7131 45.3006 42.9321 47.6874 43.3027C48.8627 43.4851 49.942 43.7199 50.7786 44.027C51.1835 44.1756 51.6708 44.3904 52.0999 44.7159C52.197 44.7895 52.3212 44.8924 52.4523 45.0253C53.7418 42.2965 56.5101 40.401 59.7338 40.401C63.2063 40.401 66.1505 42.6004 67.287 45.6717C67.3963 45.5943 67.495 45.5359 67.5718 45.4933C67.9223 45.2993 68.2966 45.1785 68.5754 45.1C69.1686 44.9329 69.9324 44.7954 70.7569 44.6767C72.4355 44.4351 74.7145 44.2237 77.2053 44.0488C82.1984 43.698 88.2339 43.4809 92.4388 43.4809C96.6505 43.4809 100.506 43.6985 103.347 44.0617C104.751 44.2412 105.998 44.4673 106.94 44.752C107.393 44.8892 107.915 45.0801 108.37 45.3647C108.681 45.5588 109.764 46.2903 109.764 47.7169C109.764 49.1435 108.681 49.875 108.37 50.0691C107.915 50.3537 107.393 50.5446 106.94 50.6818C105.998 50.9664 104.751 51.1925 103.347 51.372C100.506 51.7353 96.6505 51.9529 92.4388 51.9529C88.2339 51.9529 82.1984 51.7357 77.2053 51.385C74.7145 51.2101 72.4355 50.9987 70.7569 50.757C69.9324 50.6383 69.1686 50.5009 68.5754 50.3338C68.3173 50.2611 67.9775 50.1522 67.6504 49.9826ZM132.118 116.431C131.787 116.416 131.453 116.409 131.118 116.409C130.783 116.409 130.45 116.416 130.118 116.431H127.301V108.776H134.936V116.431H132.118ZM130.21 120.292C120.512 120.768 112.795 128.826 112.795 138.696C112.795 148.872 120.999 157.122 131.118 157.122C141.238 157.122 149.442 148.872 149.442 138.696C149.442 128.826 141.724 120.768 132.026 120.292H130.21ZM138.791 104.915V104.892H123.445V104.915H118.91C118.485 104.915 118.139 104.569 118.139 104.142V98.7726H144.097V104.142C144.097 104.569 143.752 104.915 143.326 104.915H138.791ZM150.205 80.3376C150.205 81.1106 149.638 81.7509 148.898 81.8642H114.866C114.126 81.7509 113.558 81.1106 113.558 80.3376V59.626C113.558 58.773 114.249 58.0816 115.101 58.0816H148.663C149.515 58.0816 150.205 58.773 150.205 59.626V80.3376ZM107.881 88.4583C108.488 90.3805 108.978 92.2466 108.978 92.2466C108.978 92.2466 107.099 92.45 105.924 92.2466C105.564 92.1843 105.23 92.1083 104.917 92.0184C103.17 91.5165 102.063 90.581 100.58 89.1756C98.7733 87.465 97.8067 86.2057 97.1439 83.8013C96.5466 81.6344 97.1439 78.0432 97.1439 78.0432V77.6593H104.015C104.015 77.6593 104.779 79.1948 105.924 80.7303C106.588 81.621 106.353 81.9951 106.113 82.377C105.94 82.6534 105.764 82.9339 105.924 83.4175C106.009 84.1189 106.269 84.5741 106.553 85.0713C106.727 85.3774 106.911 85.6995 107.069 86.1046C107.342 86.8052 107.622 87.6369 107.881 88.4583ZM115.101 85.743C114.071 85.743 113.108 85.4541 112.289 84.953H111.65L116.514 94.166H145.299L150.274 85.4981C149.765 85.6572 149.224 85.743 148.663 85.743H115.101ZM153.259 91.7729C153.259 91.7729 155.155 91.975 156.342 91.7729C156.692 91.7134 157.016 91.6413 157.322 91.5564C159.107 91.0602 160.229 90.1272 161.738 88.7208C163.561 87.0208 164.537 85.7692 165.206 83.3796C165.81 81.226 165.206 77.6569 165.206 77.6569V77.2977H158.258C158.159 77.4906 157.417 78.9091 156.342 80.3275C155.671 81.2128 155.909 81.5845 156.151 81.9641C156.326 82.2388 156.504 82.5176 156.342 82.9981C156.256 83.6952 155.994 84.1477 155.707 84.6418C155.531 84.9459 155.345 85.2661 155.186 85.6687C154.913 86.3584 154.633 87.1759 154.373 87.9846C153.757 89.9032 153.259 91.7729 153.259 91.7729ZM108.247 77.2977H109.703V79.5465C109.493 79.1082 109.246 78.7317 109.013 78.4199C108.731 78.0411 108.472 77.6543 108.247 77.2977ZM76.1531 61.1526L76.1484 61.1893V61.8981H76.1868V72.9059C76.2881 73.2141 76.5779 73.4367 76.9196 73.4367H106.687V61.1526H76.1531ZM71.7834 58.7847C72.0411 59.1729 72.2188 59.619 72.2926 60.0994V60.8064C72.2122 61.0092 72.0145 61.1526 71.7834 61.1526H67.0252V61.1304H51.6789V61.1526H49.9746C49.6721 61.1526 49.4269 60.9071 49.4269 60.6042C49.4269 59.9315 49.6286 59.3059 49.9746 58.7847C50.317 58.2691 50.8007 57.8557 51.3704 57.6C51.7803 57.4161 52.2346 57.3138 52.7129 57.3138H69.0451C69.5233 57.3138 69.9777 57.4161 70.3875 57.6C70.9573 57.8557 71.441 58.2691 71.7834 58.7847ZM72.2926 65.7591V71.9012H67.7502V65.7591H72.2926ZM63.1694 65.0136H55.5347V74.9544C55.5347 76.6603 56.9157 78.0432 58.6193 78.0432H60.0848C61.7884 78.0432 63.1694 76.6603 63.1694 74.9544V65.0136ZM59.7338 52.7073C62.0529 52.7073 63.9329 50.8167 63.9329 48.4846C63.9329 46.1525 62.0529 44.262 59.7338 44.262C57.4147 44.262 55.5347 46.1525 55.5347 48.4846C55.5347 50.8167 57.4147 52.7073 59.7338 52.7073ZM48.3219 48.1332C48.5398 48.0901 48.7461 48.0455 48.94 47.9995C50.2134 47.6977 50.9539 47.3369 50.9539 46.9491C50.9539 46.5614 50.2134 46.2005 48.94 45.8987C48.7461 45.8528 48.5398 45.8082 48.3219 45.7651C46.0587 45.3174 42.5413 45.0298 38.5912 45.0298C34.5851 45.0298 28.497 45.3256 24.1492 45.7842C22.9688 45.9088 21.9166 46.0453 21.0693 46.1911C19.7185 46.4237 18.8881 46.6799 18.8881 46.9491C18.8881 47.2183 19.7185 47.4746 21.0693 47.7071C21.9166 47.853 22.9688 47.9895 24.1492 48.114C28.497 48.5727 34.5851 48.8685 38.5912 48.8685C42.5413 48.8685 46.0587 48.5809 48.3219 48.1332ZM104.307 48.8923C104.698 48.8279 105.058 48.7602 105.383 48.6897C106.697 48.4044 107.451 48.0719 107.451 47.7169C107.451 47.3619 106.697 47.0294 105.383 46.7441C105.058 46.6736 104.698 46.6059 104.307 46.5415C101.561 46.0888 97.2662 45.7975 92.4388 45.7975C87.5667 45.7975 80.1586 46.0943 74.8776 46.5541C73.2396 46.6968 71.8062 46.8551 70.7166 47.0251C69.3413 47.2397 68.5137 47.473 68.5137 47.7169C68.5137 47.9608 69.3413 48.194 70.7166 48.4087C71.8062 48.5787 73.2396 48.737 74.8776 48.8797C80.1586 49.3395 87.5667 49.6363 92.4388 49.6363C97.2662 49.6363 101.561 49.3449 104.307 48.8923ZM213.304 48.7579C213.512 48.8067 213.735 48.854 213.971 48.8997C216.288 49.3481 219.892 49.6363 223.94 49.6363C228.042 49.6363 234.277 49.3403 238.729 48.8815C239.958 48.7547 241.052 48.6155 241.927 48.4667C243.282 48.2363 244.112 47.9829 244.112 47.7169C244.112 47.4508 243.282 47.1974 241.927 46.9671C241.052 46.8183 239.958 46.6791 238.729 46.5523C234.277 46.0935 228.042 45.7975 223.94 45.7975C219.892 45.7975 216.288 46.0857 213.971 46.5341C213.735 46.5797 213.512 46.6271 213.304 46.6759C212.025 46.9758 211.283 47.3332 211.283 47.7169C211.283 48.1006 212.025 48.458 213.304 48.7579ZM242.857 45.8854L242.848 45.889C242.855 45.8864 242.858 45.8851 242.858 45.885L242.857 45.8854ZM169.062 73.4367H185.325V61.1526H154.786V72.6645C154.786 73.0909 155.131 73.4367 155.557 73.4367H155.887L155.898 73.4144H169.062V73.4367ZM210.558 61.1304V61.1526H212.262C212.564 61.1526 212.81 60.9071 212.81 60.6042C212.81 59.9315 212.608 59.3059 212.262 58.7847C211.92 58.2691 211.436 57.8557 210.866 57.6C210.456 57.4161 210.002 57.3138 209.524 57.3138H193.191C192.713 57.3138 192.259 57.4161 191.849 57.6C191.279 57.8557 190.796 58.2691 190.453 58.7847C190.107 59.3059 189.906 59.9315 189.906 60.6042C189.906 60.9071 190.151 61.1526 190.453 61.1526H195.211V61.1304H210.558ZM199.067 65.0136H206.702V74.9544C206.702 76.6603 205.321 78.0432 203.617 78.0432H202.152C200.448 78.0432 199.067 76.6603 199.067 74.9544V65.0136ZM157.929 48.8923C157.538 48.8279 157.179 48.7602 156.854 48.6897C155.54 48.4044 154.786 48.0719 154.786 47.7169C154.786 47.3619 155.54 47.0294 156.854 46.7441C157.179 46.6736 157.538 46.6059 157.929 46.5415C160.675 46.0888 164.97 45.7975 169.798 45.7975C174.67 45.7975 182.078 46.0943 187.359 46.5541C188.997 46.6968 190.43 46.8551 191.52 47.0251C192.895 47.2397 193.723 47.473 193.723 47.7169C193.723 47.9608 192.895 48.194 191.52 48.4087C190.43 48.5787 188.997 48.737 187.359 48.8797C182.078 49.3395 174.67 49.6363 169.798 49.6363C164.97 49.6363 160.675 49.3449 157.929 48.8923ZM202.503 52.7073C200.184 52.7073 198.304 50.8167 198.304 48.4846C198.304 46.1525 200.184 44.262 202.503 44.262C204.822 44.262 206.702 46.1525 206.702 48.4846C206.702 50.8167 204.822 52.7073 202.503 52.7073ZM194.486 65.7591H189.906V71.9012H194.486V65.7591ZM105.153 98.0159H106.072L91.1636 124.701C90.7861 125.377 90.4214 126.112 90.1031 126.753C89.9777 127.006 89.8596 127.244 89.7506 127.458C89.4565 128.037 89.2422 128.413 89.0928 128.641C89.0307 128.612 88.9713 128.584 88.9018 128.551L88.8103 128.507C88.7301 128.469 88.6584 128.435 88.5928 128.404L88.5279 128.374L88.4439 128.334L105.153 98.0159ZM155.872 97.632L172.459 128.637L172.428 128.652C172.372 128.68 172.315 128.708 172.253 128.738L172.145 128.79L172.059 128.832L171.891 128.915L171.824 128.947C171.675 128.71 171.466 128.329 171.182 127.755C171.074 127.535 170.957 127.291 170.832 127.033C170.517 126.379 170.157 125.632 169.784 124.944L154.973 97.632H155.872Z" fill="#132634"/>
<path d="M8.21875 247.5V227.148H0.34675V225.1H18.4588V227.148H10.5868V247.5H8.21875ZM22.2418 247.5V225.1H30.6258C32.5244 225.1 34.1564 225.409 35.5218 226.028C36.8871 226.625 37.9324 227.5 38.6578 228.652C39.4044 229.783 39.7778 231.159 39.7778 232.78C39.7778 234.359 39.4044 235.724 38.6578 236.876C37.9324 238.007 36.8871 238.881 35.5218 239.5C34.1564 240.097 32.5244 240.396 30.6258 240.396H23.5538L24.6098 239.308V247.5H22.2418ZM37.5378 247.5L31.7778 239.372H34.3378L40.1298 247.5H37.5378ZM24.6098 239.5L23.5538 238.38H30.5618C32.8018 238.38 34.4978 237.889 35.6498 236.908C36.8231 235.927 37.4097 234.551 37.4097 232.78C37.4097 230.988 36.8231 229.601 35.6498 228.62C34.4978 227.639 32.8018 227.148 30.5618 227.148H23.5538L24.6098 226.028V239.5ZM45.3668 247.5V225.1H47.7348V247.5H45.3668ZM51.919 247.5L61.103 235.084V236.908L52.463 225.1H55.183L62.447 234.956L61.391 234.988L68.655 225.1H71.215L62.671 236.748V235.084L71.823 247.5H69.071L61.327 236.972H62.319L54.639 247.5H51.919ZM84.398 247.5V225.1H93.518C95.9073 225.1 97.998 225.58 99.79 226.54C101.603 227.479 103.011 228.791 104.014 230.476C105.017 232.161 105.518 234.103 105.518 236.3C105.518 238.497 105.017 240.439 104.014 242.124C103.011 243.809 101.603 245.132 99.79 246.092C97.998 247.031 95.9073 247.5 93.518 247.5H84.398ZM86.766 245.452H93.39C95.374 245.452 97.0913 245.068 98.542 244.3C100.014 243.511 101.155 242.433 101.966 241.068C102.777 239.681 103.182 238.092 103.182 236.3C103.182 234.487 102.777 232.897 101.966 231.532C101.155 230.167 100.014 229.1 98.542 228.332C97.0913 227.543 95.374 227.148 93.39 227.148H86.766V245.452ZM120.628 247.692C118.942 247.692 117.374 247.415 115.924 246.86C114.494 246.284 113.246 245.484 112.18 244.46C111.134 243.415 110.313 242.209 109.716 240.844C109.14 239.457 108.852 237.943 108.852 236.3C108.852 234.657 109.14 233.153 109.716 231.788C110.313 230.401 111.134 229.196 112.18 228.172C113.246 227.127 114.494 226.327 115.924 225.772C117.353 225.196 118.921 224.908 120.628 224.908C122.313 224.908 123.87 225.196 125.3 225.772C126.729 226.327 127.966 227.116 129.012 228.14C130.078 229.164 130.9 230.369 131.476 231.756C132.073 233.143 132.372 234.657 132.372 236.3C132.372 237.943 132.073 239.457 131.476 240.844C130.9 242.231 130.078 243.436 129.012 244.46C127.966 245.484 126.729 246.284 125.3 246.86C123.87 247.415 122.313 247.692 120.628 247.692ZM120.628 245.58C121.972 245.58 123.209 245.356 124.34 244.908C125.492 244.439 126.484 243.788 127.316 242.956C128.169 242.103 128.83 241.121 129.3 240.012C129.769 238.881 130.004 237.644 130.004 236.3C130.004 234.956 129.769 233.729 129.3 232.62C128.83 231.489 128.169 230.508 127.316 229.676C126.484 228.823 125.492 228.172 124.34 227.724C123.209 227.255 121.972 227.02 120.628 227.02C119.284 227.02 118.036 227.255 116.884 227.724C115.732 228.172 114.729 228.823 113.876 229.676C113.044 230.508 112.382 231.489 111.891 232.62C111.422 233.729 111.188 234.956 111.188 236.3C111.188 237.623 111.422 238.849 111.891 239.98C112.382 241.111 113.044 242.103 113.876 242.956C114.729 243.788 115.732 244.439 116.884 244.908C118.036 245.356 119.284 245.58 120.628 245.58ZM137.679 247.5V225.1H139.631L155.087 244.556H154.063V225.1H156.399V247.5H154.447L139.023 228.044H140.047V247.5H137.679ZM160.127 247.5L170.367 225.1H172.703L182.943 247.5H180.447L171.039 226.476H171.999L162.591 247.5H160.127ZM164.159 241.516L164.863 239.596H177.887L178.591 241.516H164.159ZM189.875 247.5V227.148H182.003V225.1H200.115V227.148H192.243V247.5H189.875ZM203.898 247.5V225.1H206.266V247.5H203.898ZM223.346 247.692C221.661 247.692 220.093 247.415 218.642 246.86C217.213 246.284 215.965 245.484 214.898 244.46C213.853 243.415 213.032 242.209 212.434 240.844C211.858 239.457 211.57 237.943 211.57 236.3C211.57 234.657 211.858 233.153 212.434 231.788C213.032 230.401 213.853 229.196 214.898 228.172C215.965 227.127 217.213 226.327 218.642 225.772C220.072 225.196 221.64 224.908 223.346 224.908C225.032 224.908 226.589 225.196 228.018 225.772C229.448 226.327 230.685 227.116 231.73 228.14C232.797 229.164 233.618 230.369 234.194 231.756C234.792 233.143 235.09 234.657 235.09 236.3C235.09 237.943 234.792 239.457 234.194 240.844C233.618 242.231 232.797 243.436 231.73 244.46C230.685 245.484 229.448 246.284 228.018 246.86C226.589 247.415 225.032 247.692 223.346 247.692ZM223.346 245.58C224.69 245.58 225.928 245.356 227.058 244.908C228.21 244.439 229.202 243.788 230.034 242.956C230.888 242.103 231.549 241.121 232.018 240.012C232.488 238.881 232.722 237.644 232.722 236.3C232.722 234.956 232.488 233.729 232.018 232.62C231.549 231.489 230.888 230.508 230.034 229.676C229.202 228.823 228.21 228.172 227.058 227.724C225.928 227.255 224.69 227.02 223.346 227.02C222.002 227.02 220.754 227.255 219.602 227.724C218.45 228.172 217.448 228.823 216.594 229.676C215.762 230.508 215.101 231.489 214.61 232.62C214.141 233.729 213.906 234.956 213.906 236.3C213.906 237.623 214.141 238.849 214.61 239.98C215.101 241.111 215.762 242.103 216.594 242.956C217.448 243.788 218.45 244.439 219.602 244.908C220.754 245.356 222.002 245.58 223.346 245.58ZM240.398 247.5V225.1H242.35L257.806 244.556H256.782V225.1H259.118V247.5H257.166L241.742 228.044H242.766V247.5H240.398Z" fill="#333333"/>
</svg>
