<svg width="150" height="150" viewBox="0 0 150 150" fill="none" xmlns="http://www.w3.org/2000/svg">
<circle opacity="0.6" cx="75" cy="75" r="75" fill="#FFA500"/>
<mask id="mask0_232_655" style="mask-type:alpha" maskUnits="userSpaceOnUse" x="35" y="35" width="80" height="80">
<rect x="35" y="35" width="80" height="80" fill="#D9D9D9"/>
</mask>
<g mask="url(#mask0_232_655)">
<path d="M90.4167 91.6667C91.8056 91.6667 92.9861 91.1806 93.9583 90.2083C94.9306 89.2361 95.4167 88.0556 95.4167 86.6667C95.4167 85.2778 94.9306 84.0972 93.9583 83.125C92.9861 82.1528 91.8056 81.6667 90.4167 81.6667C89.0278 81.6667 87.8472 82.1528 86.875 83.125C85.9028 84.0972 85.4167 85.2778 85.4167 86.6667C85.4167 88.0556 85.9028 89.2361 86.875 90.2083C87.8472 91.1806 89.0278 91.6667 90.4167 91.6667ZM90.4167 101.667C92.0833 101.667 93.6389 101.278 95.0833 100.5C96.5278 99.7222 97.7222 98.6389 98.6667 97.25C97.3889 96.4722 96.0556 95.9028 94.6667 95.5417C93.2778 95.1806 91.8611 95 90.4167 95C88.9722 95 87.5556 95.1806 86.1667 95.5417C84.7778 95.9028 83.4445 96.4722 82.1667 97.25C83.1111 98.6389 84.3056 99.7222 85.75 100.5C87.1945 101.278 88.75 101.667 90.4167 101.667ZM60.4167 58.3333H80.4167V51.6667C80.4167 48.8889 79.4445 46.5278 77.5 44.5833C75.5556 42.6389 73.1945 41.6667 70.4167 41.6667C67.6389 41.6667 65.2778 42.6389 63.3333 44.5833C61.3889 46.5278 60.4167 48.8889 60.4167 51.6667V58.3333ZM71.25 105H50.4167C48.5833 105 47.0139 104.347 45.7083 103.042C44.4028 101.736 43.75 100.167 43.75 98.3333V65C43.75 63.1667 44.4028 61.5972 45.7083 60.2917C47.0139 58.9861 48.5833 58.3333 50.4167 58.3333H53.75V51.6667C53.75 47.0556 55.375 43.125 58.625 39.875C61.875 36.625 65.8056 35 70.4167 35C75.0278 35 78.9583 36.625 82.2083 39.875C85.4583 43.125 87.0833 47.0556 87.0833 51.6667V58.3333H90.4167C92.25 58.3333 93.8195 58.9861 95.125 60.2917C96.4306 61.5972 97.0833 63.1667 97.0833 65V69.3333C96.0833 69 95.0417 68.75 93.9583 68.5833C92.875 68.4167 91.6945 68.3333 90.4167 68.3333V65H50.4167V98.3333H68.0833C68.5278 99.6667 68.9722 100.819 69.4167 101.792C69.8611 102.764 70.4722 103.833 71.25 105ZM90.4167 108.333C85.8056 108.333 81.875 106.708 78.625 103.458C75.375 100.208 73.75 96.2778 73.75 91.6667C73.75 87.0556 75.375 83.125 78.625 79.875C81.875 76.625 85.8056 75 90.4167 75C95.0278 75 98.9583 76.625 102.208 79.875C105.458 83.125 107.083 87.0556 107.083 91.6667C107.083 96.2778 105.458 100.208 102.208 103.458C98.9583 106.708 95.0278 108.333 90.4167 108.333Z" fill="#1C1B1F"/>
</g>
</svg>
