<svg width="150" height="150" viewBox="0 0 150 150" fill="none" xmlns="http://www.w3.org/2000/svg">
<circle opacity="0.6" cx="75" cy="75" r="75" fill="#FFA500"/>
<mask id="mask0_232_665" style="mask-type:alpha" maskUnits="userSpaceOnUse" x="35" y="35" width="80" height="80">
<rect x="35" y="35" width="80" height="80" fill="#D9D9D9"/>
</mask>
<g mask="url(#mask0_232_665)">
<path d="M48.3333 101.667C46.5 101.667 44.9305 101.014 43.625 99.7083C42.3194 98.4028 41.6666 96.8333 41.6666 95V55C41.6666 53.1667 42.3194 51.5972 43.625 50.2917C44.9305 48.9861 46.5 48.3333 48.3333 48.3333H82C81.7777 49.4444 81.6666 50.5556 81.6666 51.6667C81.6666 52.7778 81.7777 53.8889 82 55H48.3333L75 71.6667L87.1666 64.0833C87.9444 64.8056 88.7916 65.4306 89.7083 65.9583C90.625 66.4861 91.5833 66.9445 92.5833 67.3333L75 78.3333L48.3333 61.6667V95H101.667V68C102.944 67.7222 104.139 67.3333 105.25 66.8333C106.361 66.3333 107.389 65.7222 108.333 65V95C108.333 96.8333 107.681 98.4028 106.375 99.7083C105.069 101.014 103.5 101.667 101.667 101.667H48.3333ZM98.3333 61.6667C95.5555 61.6667 93.1944 60.6944 91.25 58.75C89.3055 56.8056 88.3333 54.4444 88.3333 51.6667C88.3333 48.8889 89.3055 46.5278 91.25 44.5833C93.1944 42.6389 95.5555 41.6667 98.3333 41.6667C101.111 41.6667 103.472 42.6389 105.417 44.5833C107.361 46.5278 108.333 48.8889 108.333 51.6667C108.333 54.4444 107.361 56.8056 105.417 58.75C103.472 60.6944 101.111 61.6667 98.3333 61.6667Z" fill="#1C1B1F"/>
</g>
</svg>
