<svg width="263" height="174" viewBox="0 0 263 174" fill="none" xmlns="http://www.w3.org/2000/svg">
<path d="M124.85 0H137.638L140.077 12.0163C143.635 12.5858 147.081 13.4937 150.381 14.7063L159.122 5.91555L170.12 12.8599L166.52 23.9627C168.681 25.7405 170.708 27.6783 172.581 29.758C172.305 29.7027 172.001 29.6528 171.683 29.6071C170.559 29.4454 169.033 29.3038 167.364 29.1865C166.719 29.1412 166.048 29.0992 165.364 29.061C156.312 20.9058 144.354 15.9463 131.244 15.9463C118.134 15.9463 106.176 20.9058 97.1241 29.061C96.4407 29.0992 95.7694 29.1412 95.1241 29.1865C93.4554 29.3038 91.9291 29.4454 90.8052 29.6071C90.4877 29.6528 90.1839 29.7027 89.9077 29.758C91.889 27.5582 94.0416 25.5173 96.3442 23.6565L92.3684 12.6027L103.622 5.91555L112.295 14.6377C115.616 13.4312 119.083 12.5328 122.663 11.9767L124.85 0Z" fill="#132634"/>
<path d="M78.0778 50.4463C77.1368 53.4356 76.4382 56.5333 76.0053 59.716L63.7229 61.9846L63.7229 75.1017L76.2553 77.4165V76.7089C76.9175 80.6877 77.9963 84.5245 79.4452 88.1725L69.9891 96.2676L76.511 107.627L88.4658 103.348C90.7869 106.137 93.3726 108.696 96.1843 110.985L92.4109 121.646L103.707 128.205L110.965 119.631C114.731 121.11 118.695 122.19 122.808 122.817L124.85 134H137.894L139.944 122.776C143.91 122.152 147.737 121.106 151.379 119.687L159.453 129.225L170.75 122.667L166.545 110.788C169.418 108.422 172.052 105.774 174.404 102.885L186.217 107.113L192.739 95.7532L183.254 87.6337C184.797 83.629 185.895 79.4016 186.489 75.0128V77.4165L199.021 75.1017V61.9846L186.489 59.6699V59.7588C186.056 56.561 185.356 53.449 184.411 50.4463C184.177 52.4361 182.687 54.0392 180.761 54.433C181.829 58.5712 182.397 62.9118 182.397 67.3858C182.397 95.7951 159.495 118.825 131.244 118.825C102.993 118.825 80.0917 95.7951 80.0917 67.3858C80.0917 62.9118 80.6597 58.5712 81.7271 54.433C79.8011 54.0392 78.312 52.4361 78.0778 50.4463Z" fill="#132634"/>
<path d="M137.094 92.2153H133.752L131.863 93.7432H137.094V95.1255H130.483C129.938 95.5257 129.683 95.9986 129.683 96.5806C129.683 97.5992 130.446 98.1449 131.899 98.1449C133.062 98.1449 134.043 97.5992 134.842 96.4351L136.477 97.5265C135.387 99.2362 133.534 100.073 131.754 100.073C129.284 100.073 127.54 98.8724 127.54 96.9808C127.54 96.326 127.758 95.6712 128.23 95.1255H126.123V93.7432H129.32L131.245 92.2153H126.123V90.8329H132.699C133.28 90.2873 133.498 89.8143 133.498 89.305C133.498 88.3956 132.662 87.7772 131.5 87.7772C130.374 87.7772 129.465 88.3956 128.775 89.4869L127.104 88.3592C128.121 86.7586 129.72 85.8855 131.536 85.8855C134.043 85.8855 135.641 87.1588 135.641 89.014C135.641 89.6688 135.423 90.3236 135.024 90.8329H137.094V92.2153Z" fill="#132634"/>
<path fill-rule="evenodd" clip-rule="evenodd" d="M88.7207 33.1533C88.5592 34.0173 88.193 34.8103 87.6739 35.4784H89.6552C91.498 35.4784 93.0976 36.5216 93.897 38.0504H117.25C117.832 36.8332 119.074 35.9928 120.513 35.9928H142.999C144.437 35.9928 145.679 36.8332 146.262 38.0504H168.592C169.391 36.5216 170.99 35.4784 172.833 35.4784H174.815C174.295 34.8103 173.929 34.0173 173.768 33.1533C173.549 33.267 173.321 33.34 173.148 33.3886C172.751 33.5006 172.239 33.5927 171.686 33.6722C170.562 33.8341 169.035 33.9757 167.366 34.093C164.021 34.3279 159.977 34.4734 157.159 34.4734C154.338 34.4734 151.754 34.3276 149.851 34.0843C148.91 33.964 148.075 33.8125 147.444 33.6218C147.14 33.5299 146.791 33.402 146.485 33.2113C146.277 33.0812 145.551 32.5912 145.551 31.6353C145.551 30.6795 146.277 30.1894 146.485 30.0593C146.791 29.8686 147.14 29.7408 147.444 29.6489C148.075 29.4581 148.91 29.3066 149.851 29.1864C151.754 28.943 154.338 28.7972 157.159 28.7972C159.977 28.7972 164.021 28.9427 167.366 29.1777C169.035 29.2949 170.562 29.4365 171.686 29.5984C172.239 29.6779 172.751 29.7701 173.148 29.882C173.335 29.9346 173.586 30.0155 173.82 30.1455C173.872 30.174 173.938 30.2132 174.011 30.265C174.773 28.2073 176.745 26.7337 179.072 26.7337C181.375 26.7337 183.331 28.1779 184.109 30.2033C184.144 30.1744 184.176 30.1495 184.205 30.1285C184.494 29.9138 184.824 29.772 185.098 29.6735C185.666 29.4698 186.402 29.3133 187.206 29.1914C188.839 28.9438 191.04 28.7972 193.435 28.7972C195.824 28.7972 199.246 28.9433 202.077 29.1792C203.488 29.2968 204.791 29.4397 205.757 29.6047C206.23 29.6854 206.687 29.7818 207.052 29.9038C207.224 29.9612 207.468 30.054 207.7 30.2059C207.84 30.2984 208.5 30.7471 208.5 31.6353C208.5 32.5235 207.84 32.9722 207.7 33.0647C207.468 33.2166 207.224 33.3095 207.052 33.3669C206.687 33.4888 206.23 33.5853 205.757 33.6659C204.791 33.831 203.488 33.9738 202.077 34.0914C199.246 34.3273 195.824 34.4734 193.435 34.4734C191.04 34.4734 188.839 34.3269 187.206 34.0793C186.402 33.9573 185.666 33.8008 185.098 33.5972C184.871 33.5157 184.606 33.4045 184.358 33.2469C184.188 34.0746 183.829 34.8345 183.329 35.4784H183.776C186.419 35.4784 188.561 37.6236 188.561 40.2698C188.561 41.9014 187.24 43.2241 185.611 43.2241H184.469V49.8844C184.469 52.4561 182.387 54.5408 179.819 54.5408H178.837C176.451 54.5408 174.485 52.7423 174.218 50.4256H170.146V51.4544H156.667V51.4985C156.677 51.5719 156.689 51.6607 156.703 51.7626C156.739 52.049 156.783 52.4482 156.813 52.9034C156.866 53.7278 156.898 55.0586 156.571 56.2278C155.953 58.4337 154.957 59.6614 153.52 61.0013C152.487 61.9643 151.451 62.8639 149.856 63.3893L161.395 84.9584C161.606 85.3532 161.742 85.8196 161.676 86.3247C161.609 86.8367 161.357 87.2208 161.099 87.4849C160.855 87.7355 160.577 87.9082 160.37 88.0236C160.208 88.1134 160.029 88.2003 159.899 88.2628C159.866 88.2787 159.837 88.293 159.812 88.3054C159.794 88.314 159.774 88.3242 159.751 88.3354C159.535 88.444 159.101 88.6615 158.64 88.722C157.962 88.8108 157.316 88.583 156.794 88.0428C156.376 87.6091 156.032 86.9351 155.771 86.4065C155.676 86.2146 155.585 86.025 155.495 85.8372C155.295 85.4223 155.099 85.0156 154.88 84.6116L143.415 63.4705L142.804 63.4054L142.845 63.251L142.524 63.8114V69.4404C142.524 71.1548 141.136 72.5446 139.423 72.5446H136.385V78.5762C142.063 80.6797 146.104 86.1667 146.104 92.5912C146.104 100.828 139.461 107.524 131.244 107.524C123.027 107.524 116.384 100.828 116.384 92.5912C116.384 86.1667 120.426 80.6797 126.103 78.5762V72.5446H123.065C121.353 72.5446 119.965 71.1548 119.965 69.4404V64.3534L119.632 63.7235L118.24 63.8741L106.729 84.4779C106.509 84.8728 106.312 85.2696 106.11 85.6756L106.11 85.6761C106.019 85.8604 105.926 86.0467 105.83 86.2355C105.567 86.7536 105.218 87.4182 104.793 87.8455C104.266 88.3758 103.623 88.5901 102.959 88.5056C102.501 88.4473 102.069 88.2374 101.85 88.1306L101.826 88.1192C101.813 88.1125 101.8 88.1064 101.788 88.1008C101.762 88.0886 101.733 88.0745 101.699 88.059C101.569 87.9976 101.388 87.9129 101.226 87.8253C101.018 87.7131 100.739 87.5445 100.492 87.2988C100.232 87.0403 99.9696 86.6569 99.8997 86.1384C99.8307 85.6258 99.9734 85.1561 100.189 84.7647L111.948 63.428C110.74 62.8859 109.871 62.1094 109.008 61.2921C107.583 59.942 106.6 58.7095 105.991 56.5002C105.669 55.3327 105.7 54.0016 105.753 53.1733C105.782 52.7167 105.826 52.3163 105.862 52.0289C105.875 51.9248 105.887 51.8344 105.898 51.7601V51.4544H94.9311C94.0158 51.4544 93.1932 51.0573 92.6258 50.4256H88.2708C88.003 52.7423 86.0371 54.5408 83.6518 54.5408H82.6699C80.1018 54.5408 78.0199 52.4561 78.0199 49.8844V43.2241H76.878C75.2486 43.2241 73.9277 41.9014 73.9277 40.2698C73.9277 37.6236 76.07 35.4784 78.7126 35.4784H79.1594C78.5667 34.7156 78.1733 33.7901 78.0563 32.7818C77.838 32.9115 77.6129 33.0068 77.4166 33.0788C76.8561 33.2845 76.133 33.4418 75.3455 33.564C73.7464 33.8123 71.5924 33.959 69.2511 33.959C66.9154 33.959 63.571 33.8128 60.8035 33.5768C59.4243 33.4591 58.1501 33.3161 57.2029 33.1505C56.7403 33.0696 56.2901 32.9725 55.9287 32.8489C55.7585 32.7907 55.5146 32.6961 55.284 32.541C55.135 32.4408 54.5 31.9919 54.5 31.1209C54.5 30.25 55.135 29.801 55.284 29.7008C55.5146 29.5457 55.7585 29.4511 55.9287 29.3929C56.2901 29.2693 56.7403 29.1722 57.2029 29.0914C58.1501 28.9258 59.4243 28.7827 60.8035 28.6651C63.571 28.429 66.9154 28.2828 69.2511 28.2828C71.5924 28.2828 73.7464 28.4295 75.3455 28.6778C76.133 28.8001 76.8561 28.9573 77.4166 29.1631C77.6879 29.2626 78.0144 29.4065 78.3019 29.6246C78.3669 29.674 78.4502 29.7429 78.538 29.8319C79.402 28.0036 81.2568 26.7337 83.4166 26.7337C85.7432 26.7337 87.7158 28.2073 88.4773 30.265C88.5505 30.2132 88.6166 30.174 88.6681 30.1455C88.9029 30.0155 89.1537 29.9346 89.3405 29.882C89.7379 29.7701 90.2497 29.6779 90.8021 29.5984C91.9268 29.4365 93.4537 29.2949 95.1226 29.1777C98.4679 28.9427 102.512 28.7972 105.329 28.7972C108.151 28.7972 110.734 28.943 112.637 29.1864C113.578 29.3066 114.414 29.4581 115.045 29.6489C115.349 29.7408 115.698 29.8686 116.003 30.0593C116.211 30.1894 116.937 30.6795 116.937 31.6353C116.937 32.5912 116.211 33.0812 116.003 33.2113C115.698 33.402 115.349 33.5299 115.045 33.6218C114.414 33.8125 113.578 33.964 112.637 34.0843C110.734 34.3276 108.151 34.4734 105.329 34.4734C102.512 34.4734 98.4679 34.3279 95.1226 34.093C93.4537 33.9757 91.9268 33.8341 90.8021 33.6722C90.2497 33.5927 89.7379 33.5006 89.3405 33.3886C89.1676 33.34 88.9399 33.267 88.7207 33.1533ZM131.914 77.6737C131.692 77.6638 131.469 77.6588 131.244 77.6588C131.02 77.6588 130.796 77.6638 130.574 77.6737H128.687V72.5446H133.802V77.6737H131.914ZM130.636 80.2606C124.138 80.5795 118.968 85.9781 118.968 92.5912C118.968 99.4094 124.464 104.937 131.244 104.937C138.024 104.937 143.521 99.4094 143.521 92.5912C143.521 85.9781 138.35 80.5795 131.853 80.2606H130.636ZM136.385 69.9578V69.9429H126.103V69.9578H123.065C122.78 69.9578 122.548 69.7261 122.548 69.4404V65.8426H139.94V69.4404C139.94 69.7261 139.709 69.9578 139.423 69.9578H136.385ZM144.032 53.4912C144.032 54.0091 143.652 54.4381 143.156 54.514H120.355C119.859 54.4381 119.479 54.0091 119.479 53.4912V39.6144C119.479 39.0429 119.942 38.5797 120.513 38.5797H142.999C143.57 38.5797 144.032 39.0429 144.032 39.6144V53.4912ZM115.675 58.9321C116.082 60.2199 116.41 61.4703 116.41 61.4703C116.41 61.4703 115.151 61.6065 114.364 61.4703C114.123 61.4285 113.899 61.3776 113.689 61.3173C112.519 60.9811 111.778 60.3543 110.783 59.4127C109.573 58.2666 108.925 57.4228 108.481 55.8119C108.081 54.36 108.481 51.9539 108.481 51.9539V51.6967H113.085C113.085 51.6967 113.597 52.7255 114.364 53.7543C114.809 54.3511 114.652 54.6017 114.491 54.8576C114.375 55.0428 114.257 55.2307 114.364 55.5547C114.421 56.0247 114.595 56.3297 114.785 56.6628C114.902 56.8679 115.026 57.0836 115.131 57.3551C115.314 57.8245 115.502 58.3817 115.675 58.9321ZM120.513 57.1128C119.822 57.1128 119.178 56.9193 118.629 56.5835H118.2L121.459 62.7562H140.745L144.079 56.9487C143.738 57.0553 143.375 57.1128 142.999 57.1128H120.513ZM146.078 61.1529C146.078 61.1529 147.349 61.2883 148.144 61.1529C148.378 61.113 148.596 61.0647 148.801 61.0078C149.996 60.6753 150.749 60.0502 151.759 59.108C152.981 57.9689 153.635 57.1304 154.083 55.5294C154.487 54.0864 154.083 51.6952 154.083 51.6952V51.4544H149.428C149.361 51.5837 148.864 52.5341 148.144 53.4845C147.695 54.0776 147.854 54.3266 148.016 54.5809C148.133 54.765 148.253 54.9518 148.144 55.2738C148.087 55.7408 147.911 56.0439 147.719 56.375C147.601 56.5788 147.476 56.7933 147.37 57.063C147.187 57.5251 146.999 58.0728 146.825 58.6147C146.412 59.9001 146.078 61.1529 146.078 61.1529ZM115.921 51.4544H116.896V52.9611C116.755 52.6675 116.59 52.4152 116.434 52.2064C116.244 51.9525 116.071 51.6934 115.921 51.4544ZM94.4176 40.6372L94.4144 40.6618V41.1367H94.4402V48.5119C94.508 48.7185 94.7021 48.8676 94.9311 48.8676H114.875V40.6372H94.4176ZM91.4899 39.0508C91.6625 39.3108 91.7816 39.6097 91.831 39.9316V40.4053C91.7772 40.5412 91.6447 40.6372 91.4899 40.6372H88.3019V40.6223H78.0199V40.6372H76.878C76.6753 40.6372 76.511 40.4727 76.511 40.2698C76.511 39.8191 76.6461 39.3999 76.878 39.0508C77.1074 38.7053 77.4315 38.4283 77.8132 38.257C78.0878 38.1338 78.3922 38.0653 78.7126 38.0653H89.6552C89.9756 38.0653 90.28 38.1338 90.5546 38.257C90.9364 38.4283 91.2605 38.7053 91.4899 39.0508ZM91.831 43.7236V47.8388H88.7876V43.7236H91.831ZM85.7185 43.2241H80.6032V49.8844C80.6032 51.0274 81.5285 51.9539 82.6699 51.9539H83.6518C84.7932 51.9539 85.7185 51.0274 85.7185 49.8844V43.2241ZM83.4166 34.9789C84.9704 34.9789 86.23 33.7122 86.23 32.1497C86.23 30.5872 84.9704 29.3205 83.4166 29.3205C81.8628 29.3205 80.6032 30.5872 80.6032 32.1497C80.6032 33.7122 81.8628 34.9789 83.4166 34.9789ZM75.7707 31.9142C75.9167 31.8854 76.0548 31.8555 76.1848 31.8247C77.0379 31.6225 77.5341 31.3807 77.5341 31.1209C77.5341 30.8611 77.0379 30.6194 76.1848 30.4171C76.0548 30.3864 75.9167 30.3565 75.7707 30.3276C74.2543 30.0276 71.8976 29.8349 69.2511 29.8349C66.567 29.8349 62.488 30.0331 59.575 30.3404C58.7841 30.4239 58.0791 30.5153 57.5114 30.6131C56.6064 30.7689 56.05 30.9406 56.05 31.1209C56.05 31.3013 56.6064 31.473 57.5114 31.6288C58.0791 31.7265 58.7841 31.818 59.575 31.9014C62.488 32.2087 66.567 32.4069 69.2511 32.4069C71.8976 32.4069 74.2543 32.2142 75.7707 31.9142ZM113.281 32.4228C113.543 32.3797 113.784 32.3344 114.001 32.2871C114.882 32.096 115.387 31.8732 115.387 31.6353C115.387 31.3975 114.882 31.1747 114.001 30.9836C113.784 30.9363 113.543 30.8909 113.281 30.8478C111.441 30.5445 108.563 30.3493 105.329 30.3493C102.065 30.3493 97.1012 30.5482 93.563 30.8563C92.4655 30.9518 91.5051 31.0579 90.7751 31.1718C89.8536 31.3156 89.2992 31.4719 89.2992 31.6353C89.2992 31.7987 89.8536 31.955 90.7751 32.0988C91.5051 32.2127 92.4655 32.3188 93.563 32.4144C97.1012 32.7225 102.065 32.9213 105.329 32.9213C108.563 32.9213 111.441 32.7261 113.281 32.4228ZM186.309 32.3328C186.448 32.3655 186.597 32.3972 186.755 32.4278C188.308 32.7282 190.722 32.9213 193.435 32.9213C196.183 32.9213 200.361 32.723 203.343 32.4156C204.167 32.3307 204.9 32.2374 205.486 32.1377C206.394 31.9833 206.95 31.8136 206.95 31.6353C206.95 31.4571 206.394 31.2873 205.486 31.133C204.9 31.0332 204.167 30.94 203.343 30.855C200.361 30.5476 196.183 30.3493 193.435 30.3493C190.722 30.3493 188.308 30.5424 186.755 30.8428C186.597 30.8734 186.448 30.9051 186.309 30.9378C185.452 31.1388 184.954 31.3782 184.954 31.6353C184.954 31.8924 185.452 32.1319 186.309 32.3328ZM206.109 30.4082L206.103 30.4106C206.108 30.4089 206.11 30.408 206.11 30.408L206.109 30.4082ZM156.667 48.8676H167.563V40.6372H147.102V48.3502C147.102 48.6359 147.333 48.8676 147.618 48.8676H147.839L147.847 48.8527H156.667V48.8676ZM184.469 40.6223V40.6372H185.611C185.813 40.6372 185.977 40.4727 185.977 40.2698C185.977 39.8191 185.842 39.3999 185.611 39.0508C185.381 38.7053 185.057 38.4283 184.675 38.257C184.401 38.1338 184.096 38.0653 183.776 38.0653H172.833C172.513 38.0653 172.208 38.1338 171.934 38.257C171.552 38.4283 171.228 38.7053 170.999 39.0508C170.767 39.3999 170.632 39.8191 170.632 40.2698C170.632 40.4727 170.796 40.6372 170.999 40.6372H174.187V40.6223H184.469ZM176.77 43.2241H181.885V49.8844C181.885 51.0274 180.96 51.9539 179.819 51.9539H178.837C177.695 51.9539 176.77 51.0274 176.77 49.8844V43.2241ZM149.207 32.4228C148.946 32.3797 148.705 32.3344 148.487 32.2871C147.607 32.096 147.102 31.8732 147.102 31.6353C147.102 31.3975 147.607 31.1747 148.487 30.9836C148.705 30.9363 148.946 30.8909 149.207 30.8478C151.047 30.5445 153.925 30.3493 157.159 30.3493C160.424 30.3493 165.387 30.5482 168.926 30.8563C170.023 30.9518 170.983 31.0579 171.713 31.1718C172.635 31.3156 173.189 31.4719 173.189 31.6353C173.189 31.7987 172.635 31.955 171.713 32.0988C170.983 32.2127 170.023 32.3188 168.926 32.4144C165.387 32.7225 160.424 32.9213 157.159 32.9213C153.925 32.9213 151.047 32.7261 149.207 32.4228ZM179.072 34.9789C177.518 34.9789 176.258 33.7122 176.258 32.1497C176.258 30.5872 177.518 29.3205 179.072 29.3205C180.626 29.3205 181.885 30.5872 181.885 32.1497C181.885 33.7122 180.626 34.9789 179.072 34.9789ZM173.701 43.7236H170.632V47.8388H173.701V43.7236ZM113.848 65.3357H114.463L104.475 83.215C104.222 83.6677 103.977 84.1599 103.764 84.5897C103.68 84.7589 103.601 84.9184 103.528 85.062C103.331 85.4496 103.187 85.7019 103.087 85.8547C103.046 85.8353 103.006 85.8163 102.959 85.794L102.898 85.7648C102.844 85.7392 102.796 85.7166 102.752 85.6959L102.709 85.6755L102.652 85.6489L113.848 65.3357ZM147.829 65.0785L158.943 85.852L158.922 85.8622C158.884 85.8807 158.846 85.8993 158.804 85.9195L158.732 85.9545L158.675 85.9824L158.562 86.038L158.517 86.0597C158.417 85.9007 158.277 85.6451 158.087 85.2606C158.015 85.1134 157.936 84.9502 157.853 84.7772C157.641 84.339 157.4 83.8382 157.15 83.3772L147.227 65.0785H147.829Z" fill="#132634"/>
<path d="M54.4492 169V156.28H49.5292V155H60.8492V156.28H55.9292V169H54.4492ZM63.2136 169V155H68.4536C69.6403 155 70.6603 155.193 71.5136 155.58C72.3669 155.953 73.0203 156.5 73.4736 157.22C73.9403 157.927 74.1736 158.787 74.1736 159.8C74.1736 160.787 73.9403 161.64 73.4736 162.36C73.0203 163.067 72.3669 163.613 71.5136 164C70.6603 164.373 69.6403 164.56 68.4536 164.56H64.0336L64.6936 163.88V169H63.2136ZM72.7736 169L69.1736 163.92H70.7736L74.3936 169H72.7736ZM64.6936 164L64.0336 163.3H68.4136C69.8136 163.3 70.8736 162.993 71.5936 162.38C72.3269 161.767 72.6936 160.907 72.6936 159.8C72.6936 158.68 72.3269 157.813 71.5936 157.2C70.8736 156.587 69.8136 156.28 68.4136 156.28H64.0336L64.6936 155.58V164ZM77.6667 169V155H79.1467V169H77.6667ZM81.7619 169L87.5019 161.24V162.38L82.1019 155H83.8019L88.3419 161.16L87.6819 161.18L92.2219 155H93.8219L88.4819 162.28V161.24L94.2019 169H92.4819L87.6419 162.42H88.2619L83.4619 169H81.7619ZM102.061 169V155H107.761C109.255 155 110.561 155.3 111.681 155.9C112.815 156.487 113.695 157.307 114.321 158.36C114.948 159.413 115.261 160.627 115.261 162C115.261 163.373 114.948 164.587 114.321 165.64C113.695 166.693 112.815 167.52 111.681 168.12C110.561 168.707 109.255 169 107.761 169H102.061ZM103.541 167.72H107.681C108.921 167.72 109.995 167.48 110.901 167C111.821 166.507 112.535 165.833 113.041 164.98C113.548 164.113 113.801 163.12 113.801 162C113.801 160.867 113.548 159.873 113.041 159.02C112.535 158.167 111.821 157.5 110.901 157.02C109.995 156.527 108.921 156.28 107.681 156.28H103.541V167.72ZM124.705 169.12C123.651 169.12 122.671 168.947 121.765 168.6C120.871 168.24 120.091 167.74 119.425 167.1C118.771 166.447 118.258 165.693 117.885 164.84C117.525 163.973 117.345 163.027 117.345 162C117.345 160.973 117.525 160.033 117.885 159.18C118.258 158.313 118.771 157.56 119.425 156.92C120.091 156.267 120.871 155.767 121.765 155.42C122.658 155.06 123.638 154.88 124.705 154.88C125.758 154.88 126.731 155.06 127.625 155.42C128.518 155.767 129.291 156.26 129.945 156.9C130.611 157.54 131.125 158.293 131.485 159.16C131.858 160.027 132.045 160.973 132.045 162C132.045 163.027 131.858 163.973 131.485 164.84C131.125 165.707 130.611 166.46 129.945 167.1C129.291 167.74 128.518 168.24 127.625 168.6C126.731 168.947 125.758 169.12 124.705 169.12ZM124.705 167.8C125.545 167.8 126.318 167.66 127.025 167.38C127.745 167.087 128.365 166.68 128.885 166.16C129.418 165.627 129.831 165.013 130.125 164.32C130.418 163.613 130.565 162.84 130.565 162C130.565 161.16 130.418 160.393 130.125 159.7C129.831 158.993 129.418 158.38 128.885 157.86C128.365 157.327 127.745 156.92 127.025 156.64C126.318 156.347 125.545 156.2 124.705 156.2C123.865 156.2 123.085 156.347 122.365 156.64C121.645 156.92 121.018 157.327 120.485 157.86C119.965 158.38 119.551 158.993 119.245 159.7C118.951 160.393 118.805 161.16 118.805 162C118.805 162.827 118.951 163.593 119.245 164.3C119.551 165.007 119.965 165.627 120.485 166.16C121.018 166.68 121.645 167.087 122.365 167.38C123.085 167.66 123.865 167.8 124.705 167.8ZM135.362 169V155H136.582L146.242 167.16H145.602V155H147.062V169H145.842L136.202 156.84H136.842V169H135.362ZM149.392 169L155.792 155H157.252L163.652 169H162.092L156.212 155.86H156.812L150.932 169H149.392ZM151.912 165.26L152.352 164.06H160.492L160.932 165.26H151.912ZM167.984 169V156.28H163.064V155H174.384V156.28H169.464V169H167.984ZM176.749 169V155H178.229V169H176.749ZM188.904 169.12C187.851 169.12 186.871 168.947 185.964 168.6C185.071 168.24 184.291 167.74 183.624 167.1C182.971 166.447 182.457 165.693 182.084 164.84C181.724 163.973 181.544 163.027 181.544 162C181.544 160.973 181.724 160.033 182.084 159.18C182.457 158.313 182.971 157.56 183.624 156.92C184.291 156.267 185.071 155.767 185.964 155.42C186.857 155.06 187.837 154.88 188.904 154.88C189.957 154.88 190.931 155.06 191.824 155.42C192.717 155.767 193.491 156.26 194.144 156.9C194.811 157.54 195.324 158.293 195.684 159.16C196.057 160.027 196.244 160.973 196.244 162C196.244 163.027 196.057 163.973 195.684 164.84C195.324 165.707 194.811 166.46 194.144 167.1C193.491 167.74 192.717 168.24 191.824 168.6C190.931 168.947 189.957 169.12 188.904 169.12ZM188.904 167.8C189.744 167.8 190.517 167.66 191.224 167.38C191.944 167.087 192.564 166.68 193.084 166.16C193.617 165.627 194.031 165.013 194.324 164.32C194.617 163.613 194.764 162.84 194.764 162C194.764 161.16 194.617 160.393 194.324 159.7C194.031 158.993 193.617 158.38 193.084 157.86C192.564 157.327 191.944 156.92 191.224 156.64C190.517 156.347 189.744 156.2 188.904 156.2C188.064 156.2 187.284 156.347 186.564 156.64C185.844 156.92 185.217 157.327 184.684 157.86C184.164 158.38 183.751 158.993 183.444 159.7C183.151 160.393 183.004 161.16 183.004 162C183.004 162.827 183.151 163.593 183.444 164.3C183.751 165.007 184.164 165.627 184.684 166.16C185.217 166.68 185.844 167.087 186.564 167.38C187.284 167.66 188.064 167.8 188.904 167.8ZM199.561 169V155H200.781L210.441 167.16H209.801V155H211.261V169H210.041L200.401 156.84H201.041V169H199.561Z" fill="#333333"/>
</svg>
