<svg width="200" height="202" viewBox="0 0 200 202" fill="none" xmlns="http://www.w3.org/2000/svg">
<circle opacity="0.6" cx="100" cy="100" r="100" fill="#FFA500"/>
<g opacity="0.9">
<rect x="127" y="162" width="40" height="40" rx="20" fill="white"/>
<path d="M146.353 194.941C145.641 194.941 145.032 194.688 144.525 194.181C144.018 193.674 143.765 193.065 143.765 192.353H148.941C148.941 193.065 148.688 193.674 148.181 194.181C147.674 194.688 147.065 194.941 146.353 194.941ZM136 191.059V188.471H138.588V179.412C138.588 177.622 139.127 176.031 140.206 174.64C141.284 173.249 142.686 172.337 144.412 171.906V171C144.412 170.461 144.6 170.002 144.978 169.625C145.355 169.248 145.814 169.059 146.353 169.059C146.892 169.059 147.35 169.248 147.728 169.625C148.105 170.002 148.294 170.461 148.294 171V171.906C148.531 171.971 148.763 172.041 148.99 172.116C149.216 172.192 149.437 172.283 149.653 172.391L147.615 174.397C147.399 174.354 147.194 174.316 147 174.284C146.806 174.251 146.59 174.235 146.353 174.235C144.929 174.235 143.711 174.742 142.697 175.756C141.683 176.77 141.176 177.988 141.176 179.412V188.471H151.529V185.753L154.118 183.165V188.471H156.706V191.059H136ZM146.353 183.294V179.315L153.503 172.197C153.697 172.003 153.913 171.863 154.15 171.776C154.387 171.69 154.625 171.647 154.862 171.647C155.121 171.647 155.369 171.696 155.606 171.793C155.843 171.89 156.059 172.035 156.253 172.229L157.45 173.426C157.623 173.621 157.757 173.836 157.854 174.074C157.951 174.311 158 174.548 158 174.785C158 175.023 157.957 175.265 157.871 175.513C157.784 175.761 157.644 175.982 157.45 176.176L150.332 183.294H146.353ZM148.294 181.353H149.524L153.438 177.406L152.856 176.791L152.241 176.209L148.294 180.124V181.353ZM152.856 176.791L152.241 176.209L153.438 177.406L152.856 176.791Z" fill="#1C1B1F"/>
</g>
<mask id="mask0_232_998" style="mask-type:alpha" maskUnits="userSpaceOnUse" x="46" y="46" width="108" height="108">
<rect x="46.6667" y="46.6666" width="106.667" height="106.667" fill="#D9D9D9"/>
</mask>
<g mask="url(#mask0_232_998)">
<path d="M99.8333 144.444C94.2778 144.444 89.0741 143.389 84.2222 141.278C79.3704 139.167 75.1481 136.315 71.5556 132.722C67.963 129.129 65.1111 124.907 63 120.055C60.8889 115.204 59.8333 110 59.8333 104.444C59.8333 98.8887 60.8889 93.685 63 88.8332C65.1111 83.9813 67.963 79.7591 71.5556 76.1665C75.1481 72.5739 79.3704 69.7221 84.2222 67.611C89.0741 65.4999 94.2778 64.4443 99.8333 64.4443C105.389 64.4443 110.593 65.4999 115.444 67.611C120.296 69.7221 124.519 72.5739 128.111 76.1665C131.704 79.7591 134.556 83.9813 136.667 88.8332C138.778 93.685 139.833 98.8887 139.833 104.444C139.833 110 138.778 115.204 136.667 120.055C134.556 124.907 131.704 129.129 128.111 132.722C124.519 136.315 120.296 139.167 115.444 141.278C110.593 143.389 105.389 144.444 99.8333 144.444ZM112.278 123.111L118.5 116.889L104.278 102.667V82.2221H95.3889V106.222L112.278 123.111ZM71.3889 57.111L77.6111 63.3332L58.7222 82.2221L52.5 75.9999L71.3889 57.111ZM128.278 57.111L147.167 75.9999L140.944 82.2221L122.056 63.3332L128.278 57.111ZM99.8333 135.555C108.5 135.555 115.852 132.537 121.889 126.5C127.926 120.463 130.944 113.111 130.944 104.444C130.944 95.7776 127.926 88.4258 121.889 82.3887C115.852 76.3517 108.5 73.3332 99.8333 73.3332C91.1667 73.3332 83.8148 76.3517 77.7778 82.3887C71.7407 88.4258 68.7222 95.7776 68.7222 104.444C68.7222 113.111 71.7407 120.463 77.7778 126.5C83.8148 132.537 91.1667 135.555 99.8333 135.555Z" fill="#1C1B1F"/>
</g>
</svg>
